<mxfile host="app.diagrams.net" agent="Mozilla/5.0 (Windows NT 10.0; Win64; x64) AppleWebKit/537.36 (KHTML, like Gecko) Chrome/127.0.0.0 Safari/537.36 Edg/127.0.0.0" version="24.7.8">
  <diagram id="C5RBs43oDa-KdzZeNtuy" name="Page-1">
    <mxGraphModel dx="2003" dy="696" grid="1" gridSize="10" guides="1" tooltips="1" connect="1" arrows="1" fold="1" page="1" pageScale="1" pageWidth="827" pageHeight="1169" math="0" shadow="0">
      <root>
        <mxCell id="WIyWlLk6GJQsqaUBKTNV-0" />
        <mxCell id="WIyWlLk6GJQsqaUBKTNV-1" parent="WIyWlLk6GJQsqaUBKTNV-0" />
        <mxCell id="WIyWlLk6GJQsqaUBKTNV-2" value="" style="rounded=0;html=1;jettySize=auto;orthogonalLoop=1;fontSize=11;endArrow=block;endFill=0;endSize=8;strokeWidth=1;shadow=0;labelBackgroundColor=none;edgeStyle=orthogonalEdgeStyle;" parent="WIyWlLk6GJQsqaUBKTNV-1" source="WIyWlLk6GJQsqaUBKTNV-3" edge="1">
          <mxGeometry relative="1" as="geometry">
            <mxPoint x="220" y="170" as="targetPoint" />
          </mxGeometry>
        </mxCell>
        <mxCell id="WIyWlLk6GJQsqaUBKTNV-3" value="Awake" style="rounded=1;whiteSpace=wrap;html=1;fontSize=12;glass=0;strokeWidth=1;shadow=0;fillColor=#fff2cc;strokeColor=#d6b656;" parent="WIyWlLk6GJQsqaUBKTNV-1" vertex="1">
          <mxGeometry x="160" y="80" width="120" height="40" as="geometry" />
        </mxCell>
        <mxCell id="w09JISdS2XsOrVuGE6zS-7" value="" style="edgeStyle=orthogonalEdgeStyle;rounded=0;orthogonalLoop=1;jettySize=auto;html=1;" edge="1" parent="WIyWlLk6GJQsqaUBKTNV-1" source="w09JISdS2XsOrVuGE6zS-3" target="w09JISdS2XsOrVuGE6zS-6">
          <mxGeometry relative="1" as="geometry" />
        </mxCell>
        <mxCell id="w09JISdS2XsOrVuGE6zS-3" value="Awake reason?" style="whiteSpace=wrap;html=1;rounded=1;" vertex="1" parent="WIyWlLk6GJQsqaUBKTNV-1">
          <mxGeometry x="160" y="170" width="120" height="40" as="geometry" />
        </mxCell>
        <mxCell id="w09JISdS2XsOrVuGE6zS-9" value="" style="edgeStyle=orthogonalEdgeStyle;rounded=0;orthogonalLoop=1;jettySize=auto;html=1;" edge="1" parent="WIyWlLk6GJQsqaUBKTNV-1" source="w09JISdS2XsOrVuGE6zS-6" target="w09JISdS2XsOrVuGE6zS-8">
          <mxGeometry relative="1" as="geometry" />
        </mxCell>
        <mxCell id="w09JISdS2XsOrVuGE6zS-11" value="" style="edgeStyle=orthogonalEdgeStyle;rounded=0;orthogonalLoop=1;jettySize=auto;html=1;" edge="1" parent="WIyWlLk6GJQsqaUBKTNV-1" source="w09JISdS2XsOrVuGE6zS-6" target="w09JISdS2XsOrVuGE6zS-10">
          <mxGeometry relative="1" as="geometry" />
        </mxCell>
        <mxCell id="w09JISdS2XsOrVuGE6zS-6" value="Reason = poweroff?" style="rhombus;whiteSpace=wrap;html=1;rounded=1;arcSize=15;" vertex="1" parent="WIyWlLk6GJQsqaUBKTNV-1">
          <mxGeometry x="145" y="240" width="150" height="70" as="geometry" />
        </mxCell>
        <mxCell id="w09JISdS2XsOrVuGE6zS-8" value="Log &quot;poweroff&quot;" style="whiteSpace=wrap;html=1;rounded=1;arcSize=15;fillColor=#dae8fc;strokeColor=#6c8ebf;" vertex="1" parent="WIyWlLk6GJQsqaUBKTNV-1">
          <mxGeometry x="330" y="245" width="120" height="60" as="geometry" />
        </mxCell>
        <mxCell id="w09JISdS2XsOrVuGE6zS-14" value="" style="edgeStyle=orthogonalEdgeStyle;rounded=0;orthogonalLoop=1;jettySize=auto;html=1;" edge="1" parent="WIyWlLk6GJQsqaUBKTNV-1" source="w09JISdS2XsOrVuGE6zS-10" target="w09JISdS2XsOrVuGE6zS-13">
          <mxGeometry relative="1" as="geometry" />
        </mxCell>
        <mxCell id="w09JISdS2XsOrVuGE6zS-10" value="Collect, log Data" style="whiteSpace=wrap;html=1;rounded=1;arcSize=15;fillColor=#dae8fc;strokeColor=#6c8ebf;" vertex="1" parent="WIyWlLk6GJQsqaUBKTNV-1">
          <mxGeometry x="160" y="350" width="120" height="50" as="geometry" />
        </mxCell>
        <mxCell id="w09JISdS2XsOrVuGE6zS-12" value="" style="endArrow=classic;html=1;rounded=0;entryX=0.5;entryY=0;entryDx=0;entryDy=0;exitX=0.5;exitY=1;exitDx=0;exitDy=0;" edge="1" parent="WIyWlLk6GJQsqaUBKTNV-1" source="w09JISdS2XsOrVuGE6zS-8" target="w09JISdS2XsOrVuGE6zS-10">
          <mxGeometry width="50" height="50" relative="1" as="geometry">
            <mxPoint x="450" y="310" as="sourcePoint" />
            <mxPoint x="500" y="355" as="targetPoint" />
            <Array as="points">
              <mxPoint x="390" y="320" />
              <mxPoint x="220" y="320" />
            </Array>
          </mxGeometry>
        </mxCell>
        <mxCell id="w09JISdS2XsOrVuGE6zS-17" value="" style="edgeStyle=orthogonalEdgeStyle;rounded=0;orthogonalLoop=1;jettySize=auto;html=1;" edge="1" parent="WIyWlLk6GJQsqaUBKTNV-1" source="w09JISdS2XsOrVuGE6zS-13" target="w09JISdS2XsOrVuGE6zS-16">
          <mxGeometry relative="1" as="geometry" />
        </mxCell>
        <mxCell id="w09JISdS2XsOrVuGE6zS-13" value="Search for network" style="whiteSpace=wrap;html=1;rounded=1;arcSize=15;" vertex="1" parent="WIyWlLk6GJQsqaUBKTNV-1">
          <mxGeometry x="160" y="430" width="120" height="50" as="geometry" />
        </mxCell>
        <mxCell id="w09JISdS2XsOrVuGE6zS-19" value="" style="edgeStyle=orthogonalEdgeStyle;rounded=0;orthogonalLoop=1;jettySize=auto;html=1;" edge="1" parent="WIyWlLk6GJQsqaUBKTNV-1" source="w09JISdS2XsOrVuGE6zS-16" target="w09JISdS2XsOrVuGE6zS-18">
          <mxGeometry relative="1" as="geometry" />
        </mxCell>
        <mxCell id="w09JISdS2XsOrVuGE6zS-16" value="Connect to network from list" style="whiteSpace=wrap;html=1;rounded=1;arcSize=15;" vertex="1" parent="WIyWlLk6GJQsqaUBKTNV-1">
          <mxGeometry x="160" y="510" width="120" height="40" as="geometry" />
        </mxCell>
        <mxCell id="w09JISdS2XsOrVuGE6zS-21" value="" style="edgeStyle=orthogonalEdgeStyle;rounded=0;orthogonalLoop=1;jettySize=auto;html=1;" edge="1" parent="WIyWlLk6GJQsqaUBKTNV-1" source="w09JISdS2XsOrVuGE6zS-18" target="w09JISdS2XsOrVuGE6zS-20">
          <mxGeometry relative="1" as="geometry" />
        </mxCell>
        <mxCell id="w09JISdS2XsOrVuGE6zS-18" value="Wait for request" style="whiteSpace=wrap;html=1;rounded=1;arcSize=15;" vertex="1" parent="WIyWlLk6GJQsqaUBKTNV-1">
          <mxGeometry x="160" y="584.5" width="120" height="35.5" as="geometry" />
        </mxCell>
        <mxCell id="w09JISdS2XsOrVuGE6zS-23" value="" style="edgeStyle=orthogonalEdgeStyle;rounded=0;orthogonalLoop=1;jettySize=auto;html=1;" edge="1" parent="WIyWlLk6GJQsqaUBKTNV-1" source="w09JISdS2XsOrVuGE6zS-20" target="w09JISdS2XsOrVuGE6zS-22">
          <mxGeometry relative="1" as="geometry" />
        </mxCell>
        <mxCell id="w09JISdS2XsOrVuGE6zS-28" value="No" style="edgeLabel;html=1;align=center;verticalAlign=middle;resizable=0;points=[];" vertex="1" connectable="0" parent="w09JISdS2XsOrVuGE6zS-23">
          <mxGeometry x="0.4" y="-3" relative="1" as="geometry">
            <mxPoint x="-15" y="-3" as="offset" />
          </mxGeometry>
        </mxCell>
        <mxCell id="w09JISdS2XsOrVuGE6zS-30" value="" style="edgeStyle=orthogonalEdgeStyle;rounded=0;orthogonalLoop=1;jettySize=auto;html=1;" edge="1" parent="WIyWlLk6GJQsqaUBKTNV-1" source="w09JISdS2XsOrVuGE6zS-20" target="w09JISdS2XsOrVuGE6zS-29">
          <mxGeometry relative="1" as="geometry" />
        </mxCell>
        <mxCell id="w09JISdS2XsOrVuGE6zS-20" value="No requests?" style="rhombus;whiteSpace=wrap;html=1;rounded=1;arcSize=15;" vertex="1" parent="WIyWlLk6GJQsqaUBKTNV-1">
          <mxGeometry x="130" y="660" width="180" height="80" as="geometry" />
        </mxCell>
        <mxCell id="w09JISdS2XsOrVuGE6zS-25" value="" style="edgeStyle=orthogonalEdgeStyle;rounded=0;orthogonalLoop=1;jettySize=auto;html=1;flowAnimation=0;" edge="1" parent="WIyWlLk6GJQsqaUBKTNV-1" source="w09JISdS2XsOrVuGE6zS-22" target="w09JISdS2XsOrVuGE6zS-24">
          <mxGeometry relative="1" as="geometry" />
        </mxCell>
        <mxCell id="w09JISdS2XsOrVuGE6zS-27" value="No" style="edgeLabel;html=1;align=center;verticalAlign=middle;resizable=0;points=[];fontSize=14;" vertex="1" connectable="0" parent="w09JISdS2XsOrVuGE6zS-25">
          <mxGeometry x="0.2" y="-2" relative="1" as="geometry">
            <mxPoint x="-2" y="20" as="offset" />
          </mxGeometry>
        </mxCell>
        <mxCell id="w09JISdS2XsOrVuGE6zS-38" value="" style="edgeStyle=orthogonalEdgeStyle;rounded=0;orthogonalLoop=1;jettySize=auto;html=1;" edge="1" parent="WIyWlLk6GJQsqaUBKTNV-1" source="w09JISdS2XsOrVuGE6zS-22" target="w09JISdS2XsOrVuGE6zS-37">
          <mxGeometry relative="1" as="geometry" />
        </mxCell>
        <mxCell id="w09JISdS2XsOrVuGE6zS-44" value="Yes" style="edgeLabel;html=1;align=center;verticalAlign=middle;resizable=0;points=[];" vertex="1" connectable="0" parent="w09JISdS2XsOrVuGE6zS-38">
          <mxGeometry x="0.1556" y="-1" relative="1" as="geometry">
            <mxPoint x="-5" y="-1" as="offset" />
          </mxGeometry>
        </mxCell>
        <mxCell id="w09JISdS2XsOrVuGE6zS-22" value="List ended?" style="rhombus;whiteSpace=wrap;html=1;rounded=1;arcSize=15;" vertex="1" parent="WIyWlLk6GJQsqaUBKTNV-1">
          <mxGeometry x="360" y="660" width="170" height="80" as="geometry" />
        </mxCell>
        <mxCell id="w09JISdS2XsOrVuGE6zS-26" value="" style="edgeStyle=orthogonalEdgeStyle;rounded=0;orthogonalLoop=1;jettySize=auto;html=1;" edge="1" parent="WIyWlLk6GJQsqaUBKTNV-1" source="w09JISdS2XsOrVuGE6zS-24" target="w09JISdS2XsOrVuGE6zS-16">
          <mxGeometry relative="1" as="geometry" />
        </mxCell>
        <mxCell id="w09JISdS2XsOrVuGE6zS-24" value="Next in List" style="whiteSpace=wrap;html=1;rounded=1;arcSize=15;" vertex="1" parent="WIyWlLk6GJQsqaUBKTNV-1">
          <mxGeometry x="385" y="500" width="120" height="60" as="geometry" />
        </mxCell>
        <mxCell id="w09JISdS2XsOrVuGE6zS-34" value="" style="edgeStyle=orthogonalEdgeStyle;rounded=0;orthogonalLoop=1;jettySize=auto;html=1;" edge="1" parent="WIyWlLk6GJQsqaUBKTNV-1" source="w09JISdS2XsOrVuGE6zS-29" target="w09JISdS2XsOrVuGE6zS-33">
          <mxGeometry relative="1" as="geometry" />
        </mxCell>
        <mxCell id="w09JISdS2XsOrVuGE6zS-29" value="Proceed to EXCHANGE" style="whiteSpace=wrap;html=1;rounded=1;arcSize=15;fillColor=#d5e8d4;strokeColor=#82b366;shadow=0;glass=0;" vertex="1" parent="WIyWlLk6GJQsqaUBKTNV-1">
          <mxGeometry x="160" y="770" width="120" height="50" as="geometry" />
        </mxCell>
        <mxCell id="w09JISdS2XsOrVuGE6zS-36" value="" style="edgeStyle=orthogonalEdgeStyle;rounded=0;orthogonalLoop=1;jettySize=auto;html=1;" edge="1" parent="WIyWlLk6GJQsqaUBKTNV-1" source="w09JISdS2XsOrVuGE6zS-33" target="w09JISdS2XsOrVuGE6zS-35">
          <mxGeometry relative="1" as="geometry" />
        </mxCell>
        <mxCell id="w09JISdS2XsOrVuGE6zS-33" value="Finish exchange" style="whiteSpace=wrap;html=1;rounded=1;arcSize=15;shadow=0;glass=0;" vertex="1" parent="WIyWlLk6GJQsqaUBKTNV-1">
          <mxGeometry x="160" y="850" width="120" height="50" as="geometry" />
        </mxCell>
        <mxCell id="w09JISdS2XsOrVuGE6zS-50" value="" style="edgeStyle=orthogonalEdgeStyle;rounded=0;orthogonalLoop=1;jettySize=auto;html=1;" edge="1" parent="WIyWlLk6GJQsqaUBKTNV-1" source="w09JISdS2XsOrVuGE6zS-35" target="w09JISdS2XsOrVuGE6zS-49">
          <mxGeometry relative="1" as="geometry" />
        </mxCell>
        <mxCell id="w09JISdS2XsOrVuGE6zS-35" value="Sleep for &lt;b&gt;MEASURE STEP&lt;/b&gt;" style="whiteSpace=wrap;html=1;rounded=1;arcSize=15;shadow=0;glass=0;fillColor=#fff2cc;strokeColor=#d6b656;" vertex="1" parent="WIyWlLk6GJQsqaUBKTNV-1">
          <mxGeometry x="470" y="810" width="120" height="50" as="geometry" />
        </mxCell>
        <mxCell id="w09JISdS2XsOrVuGE6zS-41" value="" style="edgeStyle=orthogonalEdgeStyle;rounded=0;orthogonalLoop=1;jettySize=auto;html=1;" edge="1" parent="WIyWlLk6GJQsqaUBKTNV-1" source="w09JISdS2XsOrVuGE6zS-37" target="w09JISdS2XsOrVuGE6zS-40">
          <mxGeometry relative="1" as="geometry" />
        </mxCell>
        <mxCell id="w09JISdS2XsOrVuGE6zS-43" value="No" style="edgeLabel;html=1;align=center;verticalAlign=middle;resizable=0;points=[];" vertex="1" connectable="0" parent="w09JISdS2XsOrVuGE6zS-41">
          <mxGeometry x="-0.2343" y="-1" relative="1" as="geometry">
            <mxPoint as="offset" />
          </mxGeometry>
        </mxCell>
        <mxCell id="w09JISdS2XsOrVuGE6zS-48" value="" style="edgeStyle=orthogonalEdgeStyle;rounded=0;orthogonalLoop=1;jettySize=auto;html=1;" edge="1" parent="WIyWlLk6GJQsqaUBKTNV-1" source="w09JISdS2XsOrVuGE6zS-37" target="w09JISdS2XsOrVuGE6zS-35">
          <mxGeometry relative="1" as="geometry" />
        </mxCell>
        <mxCell id="w09JISdS2XsOrVuGE6zS-37" value="Second time?" style="rhombus;whiteSpace=wrap;html=1;rounded=1;arcSize=15;" vertex="1" parent="WIyWlLk6GJQsqaUBKTNV-1">
          <mxGeometry x="590" y="660" width="150" height="80" as="geometry" />
        </mxCell>
        <mxCell id="w09JISdS2XsOrVuGE6zS-42" style="edgeStyle=orthogonalEdgeStyle;rounded=0;orthogonalLoop=1;jettySize=auto;html=1;entryX=1;entryY=0.5;entryDx=0;entryDy=0;" edge="1" parent="WIyWlLk6GJQsqaUBKTNV-1" source="w09JISdS2XsOrVuGE6zS-40" target="w09JISdS2XsOrVuGE6zS-13">
          <mxGeometry relative="1" as="geometry" />
        </mxCell>
        <mxCell id="w09JISdS2XsOrVuGE6zS-40" value="Start again" style="whiteSpace=wrap;html=1;rounded=1;arcSize=15;" vertex="1" parent="WIyWlLk6GJQsqaUBKTNV-1">
          <mxGeometry x="605" y="425" width="120" height="60" as="geometry" />
        </mxCell>
        <mxCell id="w09JISdS2XsOrVuGE6zS-52" value="" style="edgeStyle=orthogonalEdgeStyle;rounded=0;orthogonalLoop=1;jettySize=auto;html=1;" edge="1" parent="WIyWlLk6GJQsqaUBKTNV-1" source="w09JISdS2XsOrVuGE6zS-49" target="w09JISdS2XsOrVuGE6zS-51">
          <mxGeometry relative="1" as="geometry" />
        </mxCell>
        <mxCell id="w09JISdS2XsOrVuGE6zS-49" value="Collect LogData" style="whiteSpace=wrap;html=1;fillColor=#dae8fc;strokeColor=#6c8ebf;rounded=1;arcSize=15;shadow=0;glass=0;" vertex="1" parent="WIyWlLk6GJQsqaUBKTNV-1">
          <mxGeometry x="650" y="805" width="120" height="60" as="geometry" />
        </mxCell>
        <mxCell id="w09JISdS2XsOrVuGE6zS-54" value="" style="edgeStyle=orthogonalEdgeStyle;rounded=0;orthogonalLoop=1;jettySize=auto;html=1;" edge="1" parent="WIyWlLk6GJQsqaUBKTNV-1" source="w09JISdS2XsOrVuGE6zS-51" target="w09JISdS2XsOrVuGE6zS-53">
          <mxGeometry relative="1" as="geometry" />
        </mxCell>
        <mxCell id="w09JISdS2XsOrVuGE6zS-55" value="No" style="edgeLabel;html=1;align=center;verticalAlign=middle;resizable=0;points=[];" vertex="1" connectable="0" parent="w09JISdS2XsOrVuGE6zS-54">
          <mxGeometry x="0.6519" y="1" relative="1" as="geometry">
            <mxPoint x="-1" y="-12" as="offset" />
          </mxGeometry>
        </mxCell>
        <mxCell id="w09JISdS2XsOrVuGE6zS-56" style="edgeStyle=orthogonalEdgeStyle;rounded=0;orthogonalLoop=1;jettySize=auto;html=1;exitX=0;exitY=0.5;exitDx=0;exitDy=0;entryX=0;entryY=0.5;entryDx=0;entryDy=0;" edge="1" parent="WIyWlLk6GJQsqaUBKTNV-1" source="w09JISdS2XsOrVuGE6zS-51" target="WIyWlLk6GJQsqaUBKTNV-3">
          <mxGeometry relative="1" as="geometry">
            <Array as="points">
              <mxPoint x="100" y="942" />
              <mxPoint x="100" y="100" />
            </Array>
          </mxGeometry>
        </mxCell>
        <mxCell id="w09JISdS2XsOrVuGE6zS-51" value="&lt;b&gt;NETWORK_STEP &lt;/b&gt;-&amp;nbsp;&lt;b&gt;MEASURE STEP&lt;/b&gt; &amp;lt; &lt;b&gt;5 &lt;/b&gt;sec" style="rhombus;whiteSpace=wrap;html=1;rounded=1;arcSize=15;shadow=0;glass=0;" vertex="1" parent="WIyWlLk6GJQsqaUBKTNV-1">
          <mxGeometry x="605" y="900" width="220" height="85" as="geometry" />
        </mxCell>
        <mxCell id="w09JISdS2XsOrVuGE6zS-57" style="edgeStyle=orthogonalEdgeStyle;rounded=0;orthogonalLoop=1;jettySize=auto;html=1;exitX=0;exitY=0.5;exitDx=0;exitDy=0;" edge="1" parent="WIyWlLk6GJQsqaUBKTNV-1" source="w09JISdS2XsOrVuGE6zS-53">
          <mxGeometry relative="1" as="geometry">
            <mxPoint x="100" y="940" as="targetPoint" />
          </mxGeometry>
        </mxCell>
        <mxCell id="w09JISdS2XsOrVuGE6zS-53" value="Sleep for&amp;nbsp;&lt;b&gt;NETWORK_STEP&amp;nbsp;&lt;/b&gt;-&amp;nbsp;&lt;b&gt;MEASURE STEP&lt;/b&gt;" style="whiteSpace=wrap;html=1;rounded=1;arcSize=15;shadow=0;glass=0;fillColor=#ffe6cc;strokeColor=#d79b00;" vertex="1" parent="WIyWlLk6GJQsqaUBKTNV-1">
          <mxGeometry x="655" y="1020" width="120" height="60" as="geometry" />
        </mxCell>
        <mxCell id="w09JISdS2XsOrVuGE6zS-58" value="Memory manipulation" style="rounded=1;whiteSpace=wrap;html=1;fillColor=#dae8fc;strokeColor=#6c8ebf;" vertex="1" parent="WIyWlLk6GJQsqaUBKTNV-1">
          <mxGeometry x="650" y="40" width="125" height="40" as="geometry" />
        </mxCell>
        <mxCell id="w09JISdS2XsOrVuGE6zS-60" value="Deep sleep" style="rounded=1;whiteSpace=wrap;html=1;fillColor=#ffe6cc;strokeColor=#d79b00;" vertex="1" parent="WIyWlLk6GJQsqaUBKTNV-1">
          <mxGeometry x="650" y="90" width="125" height="40" as="geometry" />
        </mxCell>
        <mxCell id="w09JISdS2XsOrVuGE6zS-61" value="Subprogramm" style="rounded=1;whiteSpace=wrap;html=1;fillColor=#d5e8d4;strokeColor=#82b366;" vertex="1" parent="WIyWlLk6GJQsqaUBKTNV-1">
          <mxGeometry x="650" y="140" width="125" height="40" as="geometry" />
        </mxCell>
        <mxCell id="w09JISdS2XsOrVuGE6zS-74" value="Request model" style="swimlane;fillColor=#e1d5e7;strokeColor=#9673a6;" vertex="1" parent="WIyWlLk6GJQsqaUBKTNV-1">
          <mxGeometry x="-730" y="25" width="650" height="405" as="geometry" />
        </mxCell>
      </root>
    </mxGraphModel>
  </diagram>
</mxfile>
